
<svg width="1440" height="856" viewBox="0 0 1440 856" fill="none" xmlns="http://www.w3.org/2000/svg">
<g clip-path="url(#clip0_51_34)">
<rect width="1440" height="856" fill="#121214"/>
<path opacity="0.7" d="M0 872.318L0 -698.318M43.6662 872.318L43.6662 -698.318M87.3324 872.318L87.3324 -698.318M130.999 872.318L130.999 -698.318M174.665 872.318L174.665 -698.318M218.331 872.318L218.331 -698.318M261.997 872.318L261.997 -698.318M305.664 872.318L305.664 -698.318M349.33 872.318L349.33 -698.318M392.996 872.318L392.996 -698.318M436.662 872.318L436.662 -698.318M480.328 872.318L480.328 -698.318M523.995 872.318L523.995 -698.318M567.661 872.318L567.661 -698.318M611.327 872.318L611.327 -698.318M654.993 872.318L654.993 -698.318M698.66 872.318L698.66 -698.318M742.326 872.318L742.326 -698.318M785.992 872.318L785.992 -698.318M829.658 872.318L829.658 -698.318M873.324 872.318L873.324 -698.318M916.991 872.318L916.991 -698.318M960.657 872.318L960.657 -698.318M1004.32 872.318L1004.32 -698.318M1047.99 872.318V-698.318M1091.66 872.318V-698.318M1135.32 872.318V-698.318M1178.99 872.318V-698.318M1222.65 872.318V-698.318M1266.32 872.318V-698.318M1309.99 872.318V-698.318M1353.65 872.318V-698.318M1397.32 872.318V-698.318M1440.99 872.318V-698.318M1529 873L0.682285 873M1529 829.333L0.682285 829.333M1529 785.667L0.682285 785.667M1529 742L0.682285 742M1529 698.333L0.682285 698.333M1529 654.667L0.682285 654.667M1529 611L0.682285 611M1529 567.333L0.682285 567.333M1529 523.667L0.682285 523.667M1529 480L0.682285 480M1529 436.333L0.682285 436.333M1529 392.667L0.682285 392.667M1529 349L0.682285 349M1529 305.333L0.682285 305.333M1529 261.667L0.682285 261.667M1529 218L0.682285 218M1529 174.333L0.682285 174.333M1529 130.667L0.682285 130.667M1529 87L0.682285 86.9999M1529 43.3333L0.682285 43.3332M1529 -0.333359L0.682285 -0.333442M1529 -44L0.682285 -44.0001M1529 -87.6667L0.682285 -87.6668M1529 -131.333L0.682285 -131.333M1529 -175L0.682285 -175M1529 -218.667L0.682285 -218.667M1529 -262.333L0.682285 -262.333M1529 -306L0.682285 -306M1529 -349.667L0.682285 -349.667M1529 -393.333L0.682285 -393.333M1529 -437L0.682285 -437M1529 -480.667L0.682285 -480.667M1529 -524.333H0.682285M1529 -568H0.682285M1529 -611.667H0.682285M1529 -655.333H0.682285M1529 -699H0.682285" stroke="url(#paint0_linear_51_34)"/>
<g filter="url(#filter0_f_51_34)">
<path d="M7 62.2435V-438.256L391 -660L775 -438.256V62.2435L391 284L7 62.2435Z" fill="url(#paint1_linear_51_34)"/>
<path d="M435 175.319V-317.565L861.853 -564L1288.71 -317.565V175.319L861.853 421.769L435 175.319Z" fill="url(#paint2_linear_51_34)"/>
</g>
<rect x="1377.5" y="220.5" width="19" height="19" stroke="#FB0388"/>
<rect x="136" y="516" width="20" height="20" fill="#FB0388"/>
<rect x="1353" y="228" width="12" height="12" fill="white"/>
<rect x="1110" y="661" width="12" height="12" fill="white"/>
<rect x="1168" y="417" width="12" height="12" rx="6" fill="white"/>
<rect x="1184" y="410" width="7" height="7" rx="3.5" fill="#FFCD1E"/>
<rect x="351" y="249" width="7" height="7" rx="3.5" fill="#FFCD1E"/>
<rect x="486" y="455" width="7" height="7" rx="3.5" fill="#FB0388"/>
<rect width="12" height="12" transform="matrix(-1 0 0 1 142 182)" fill="white"/>
<rect x="112.5" y="524.5" width="11" height="11" stroke="white"/>
<rect x="1365" y="240" width="12" height="12" fill="#FFCD1E"/>
<rect x="1089" y="138" width="18" height="5" fill="#FFCD1E"/>
<rect x="1107" y="138" width="18" height="5" fill="#FB0388"/>
<rect x="1071" y="138" width="18" height="5" fill="white"/>
<rect x="1098.5" y="649.5" width="11" height="11" stroke="#FFCD1E"/>
<rect x="276.5" y="689.5" width="11" height="11" stroke="#FFCD1E"/>
<rect x="1385.5" y="621.5" width="11" height="11" stroke="#FB0388"/>
<rect x="-0.5" y="0.5" width="11" height="11" transform="matrix(-1 0 0 1 153 170)" stroke="#FFCD1E"/>
<rect x="124" y="536" width="12" height="12" fill="#FFCD1E"/>
</g>
<defs>
<filter id="filter0_f_51_34" x="-193" y="-860" width="1681.71" height="1481.77" filterUnits="userSpaceOnUse" color-interpolation-filters="sRGB">
<feFlood flood-opacity="0" result="BackgroundImageFix"/>
<feBlend mode="normal" in="SourceGraphic" in2="BackgroundImageFix" result="shape"/>
<feGaussianBlur stdDeviation="100" result="effect1_foregroundBlur_51_34"/>
</filter>
<linearGradient id="paint0_linear_51_34" x1="545.5" y1="-4.99993" x2="545.5" y2="514" gradientUnits="userSpaceOnUse">
<stop stop-color="#323238"/>
<stop offset="1" stop-color="#323238" stop-opacity="0"/>
</linearGradient>
<linearGradient id="paint1_linear_51_34" x1="-10.0647" y1="58.972" x2="762.355" y2="-409.114" gradientUnits="userSpaceOnUse">
<stop stop-color="#FF008E" stop-opacity="0"/>
<stop offset="1" stop-color="#8257E5"/>
</linearGradient>
<linearGradient id="paint2_linear_51_34" x1="452.963" y1="175.363" x2="1273.95" y2="-319.519" gradientUnits="userSpaceOnUse">
<stop stop-color="#FF008E" stop-opacity="0"/>
<stop offset="0.98" stop-color="#FFCD1E"/>
</linearGradient>
<clipPath id="clip0_51_34">
<rect width="1440" height="856" fill="white"/>
</clipPath>
</defs>
</svg>