<svg width="74" height="39" viewBox="0 0 74 39" fill="none" xmlns="http://www.w3.org/2000/svg">
<path d="M0 22.3894H5.61686L8.73733 6.86505H3.12048L0 22.3894ZM4.29065 5.46083H10.9217L12.0138 0H5.38282L4.29065 5.46083ZM7.80119 26.7581H13.418L16.8506 9.98552H21.0632L21.6873 6.86505H17.5527L17.7087 6.16294C17.9427 4.83674 18.4108 3.35451 20.5171 3.35451C21.7653 3.35451 22.9355 3.43252 24.1057 3.97861L24.7298 0.702107C23.4036 0.234035 21.9994 0 20.6732 0C16.1485 0 13.028 2.65241 11.8578 6.86505H9.90751L9.28342 9.98552H11.2337L7.80119 26.7581Z" fill="#E1E1E6"></path>
<path d="M25.5876 22.7014C32.2187 22.7014 36.8214 16.6945 36.8214 11.7798C36.8214 8.1132 33.4668 6.55296 30.1903 6.55296C22.9352 6.55296 18.9566 13.0279 18.9566 17.4746C18.9566 21.1412 22.3892 22.7014 25.5876 22.7014ZM43.3744 22.7014C50.0054 22.7014 54.6081 16.6945 54.6081 11.7798C54.6081 8.1132 51.1755 6.55296 47.899 6.55296C40.6439 6.55296 36.6653 13.0279 36.6653 17.4746C36.6653 21.1412 40.1759 22.7014 43.3744 22.7014V22.7014ZM63.7355 22.3894H69.2743L73.799 0.312012H68.1821L66.8559 6.86501L64.5156 6.63097C59.0547 6.63097 54.062 13.652 54.062 18.6448C54.062 20.6731 55.3882 22.7014 57.6505 22.7014C60.849 22.7014 63.1114 21.1412 64.0475 19.5809H64.3595L63.7355 22.3894ZM46.4168 34.0131C42.0569 37.6252 36.4574 39.389 30.8144 38.9279C23.4033 38.4598 18.0985 32.7649 17.1624 26.758H17.4744C19.1907 30.5026 23.3253 34.0131 28.3961 34.5592C33.5449 35.1833 39.7078 32.843 43.0623 29.6445L39.3177 26.758H50.6295L48.1331 38.7719L46.4948 34.0911L46.4168 34.0131Z" fill="#E1E1E6"></path>
</svg>