<svg width="280" height="24" viewBox="0 0 280 24" fill="none" xmlns="http://www.w3.org/2000/svg">
<path d="M46.2396 11.9952C46.2396 18.584 40.9416 23.9428 34.4276 23.9428C27.9136 23.9428 22.6156 18.584 22.6156 11.9952C22.6156 5.40643 27.9136 0.0476685 34.4276 0.0476685C40.9416 0.0476685 46.2396 5.40643 46.2396 11.9952Z" fill="url(#paint0_linear_5_137)"/>
<path d="M22.6059 11.9952C22.6059 18.3075 17.5436 23.4279 11.3029 23.4279H0V0.553009H11.3029C17.5436 0.553009 22.6059 5.67338 22.6059 11.9857V11.9952Z" fill="url(#paint1_linear_5_137)"/>
<path d="M72.6726 12.5387L75.8872 0.533966H84.9937L76.9525 23.447H69.4486L66.498 14.1692L63.5473 23.447H56.0435L48.0023 0.533966H57.1087L60.3233 12.5387L63.5379 0.533966H69.4298L72.6443 12.5387H72.6726Z" fill="url(#paint2_linear_5_137)"/>
<path d="M108.844 0.533966V23.447H100.275V15.2658H94.9202V23.447H86.3511V0.533966H94.9202V8.71513H100.275V0.533966H108.844Z" fill="url(#paint3_linear_5_137)"/>
<path d="M112.059 23.4565V0.543488H120.628V23.4565H112.059Z" fill="url(#paint4_linear_5_137)"/>
<path d="M139.387 16.9058V23.4565H123.852V0.543488H132.421V16.9154H139.387V16.9058Z" fill="url(#paint5_linear_5_137)"/>
<path d="M150.106 7.08463V9.26819H155.46V14.7223H150.106V16.9058H157.072V23.4565H141.537V0.543488H157.072V7.09417H150.106V7.08463Z" fill="url(#paint6_linear_5_137)"/>
<path d="M184.194 0.705587L181.14 0.238373C181.045 0.238373 180.951 0.23835 180.951 0.333701L179.659 2.02144C179.565 2.1168 179.565 2.29795 179.565 2.3933C179.565 2.48865 179.471 2.66983 179.377 2.58402L178.359 2.30749C178.17 2.30749 177.991 2.3075 177.897 2.4982L173.73 7.93323C173.636 8.02858 173.541 8.02859 173.362 8.02859L171.788 7.27533C171.599 7.17998 171.515 7.17998 171.326 7.27533L170.496 7.8379C170.402 7.93325 170.223 7.93325 170.035 7.8379L169.667 7.64719C169.393 7.55184 169.111 7.64719 169.016 7.92371L168.743 9.23003C168.649 9.50655 168.837 9.88796 169.016 9.98331L169.761 10.4505L171.703 11.671L172.627 12.2336C172.9 12.4243 173.183 12.3289 173.457 12.1382L175.031 10.7366C175.125 10.6412 175.304 10.6412 175.493 10.6412L175.955 10.9177C176.143 11.0131 176.322 11.0131 176.417 10.8224L177.246 10.0691C177.34 9.97378 177.52 9.87842 177.708 9.97377L178.915 10.5363C179.103 10.6317 179.282 10.5363 179.471 10.441L180.027 9.68773L184.194 4.25267C184.382 3.97615 184.288 3.59474 183.92 3.59474L182.997 3.40403C182.808 3.40403 182.723 3.12752 182.808 2.93681L184.288 1.15374C184.477 0.963037 184.382 0.686527 184.194 0.686527V0.705587Z" fill="white"/>
<path d="M170.308 11.6615C170.214 11.5662 170.119 11.6615 170.119 11.7569L170.581 12.9774V13.2539L170.214 14.8462C170.214 14.9416 170.214 15.037 170.308 15.1228L171.42 15.9619C171.515 16.0572 171.694 16.0572 171.788 15.9619L172.995 14.9321C173.089 14.8367 173.183 14.8367 173.268 14.8367L174.559 14.646C174.654 14.646 174.654 14.5507 174.559 14.4553L170.298 11.6424L170.308 11.6615Z" fill="white"/>
<path d="M169.94 15.6949C169.846 15.5995 169.752 15.5995 169.667 15.6949L168.743 16.1621C168.649 16.1621 168.649 16.2574 168.649 16.2574L166.612 21.3111H166.707L167.169 21.1204V21.2157L165.689 23.6472C165.689 23.7108 165.72 23.7425 165.783 23.7425L170.968 18.4028C171.062 18.4028 171.062 18.3075 171.062 18.2121L171.156 16.8105C171.156 16.7151 171.156 16.6198 171.062 16.6198L169.95 15.6853L169.94 15.6949Z" fill="white"/>
<path d="M210.372 16.9058V23.447H189.482C189.482 23.447 199.428 12.4052 200.729 9.81167C201.766 7.7616 200.663 6.54111 199.654 6.54111C198.551 6.54111 197.514 7.12275 197.514 9.81167L189.548 9.26818C189.548 4.15733 193.093 0 199.654 0C206.215 0 209.826 3.37544 209.826 8.18116C209.826 11.1847 207.28 14.5888 204.471 16.9058H210.363H210.372Z" fill="white"/>
<path d="M233.94 11.9952C233.94 18.6126 229.622 24 223.231 24C216.84 24 212.513 18.6126 212.513 11.9952C212.513 5.37782 216.83 0 223.231 0C229.632 0 233.94 5.38736 233.94 11.9952Z" fill="white"/>
<path d="M256.96 16.9058V23.447H236.07C236.07 23.447 246.016 12.4052 247.317 9.81166C248.354 7.7616 247.251 6.54111 246.242 6.54111C245.139 6.54111 244.102 7.12275 244.102 9.81166L236.136 9.26818C236.136 4.15733 239.681 0 246.242 0C252.803 0 256.414 3.37544 256.414 8.18116C256.414 11.1847 253.868 14.5888 251.059 16.9058H256.951H256.96Z" fill="white"/>
<path d="M280 16.9058V23.447H259.11C259.11 23.447 269.055 12.4052 270.356 9.81166C271.393 7.77114 270.29 6.54111 269.282 6.54111C268.179 6.54111 267.142 7.12275 267.142 9.81166L259.176 9.26818C259.176 4.15733 262.72 0 269.282 0C275.843 0 279.463 3.37544 279.463 8.18116C279.463 11.1847 276.917 14.5888 274.108 16.9058H280Z" fill="white"/>
<defs>
<linearGradient id="paint0_linear_5_137" x1="1.5746" y1="7.63766" x2="157.613" y2="27.8698" gradientUnits="userSpaceOnUse">
<stop stop-color="#FB008A"/>
<stop offset="0.98" stop-color="#FBC91E"/>
</linearGradient>
<linearGradient id="paint1_linear_5_137" x1="1.09353" y1="11.3468" x2="157.132" y2="31.5789" gradientUnits="userSpaceOnUse">
<stop stop-color="#FB008A"/>
<stop offset="0.98" stop-color="#FBC91E"/>
</linearGradient>
<linearGradient id="paint2_linear_5_137" x1="2.18719" y1="2.92729" x2="158.225" y2="23.1594" gradientUnits="userSpaceOnUse">
<stop stop-color="#FB008A"/>
<stop offset="0.98" stop-color="#FBC91E"/>
</linearGradient>
<linearGradient id="paint3_linear_5_137" x1="2.6396" y1="-0.600719" x2="158.687" y2="19.6314" gradientUnits="userSpaceOnUse">
<stop stop-color="#FB008A"/>
<stop offset="0.98" stop-color="#FBC91E"/>
</linearGradient>
<linearGradient id="paint4_linear_5_137" x1="2.95994" y1="-3.05127" x2="158.999" y2="17.1903" gradientUnits="userSpaceOnUse">
<stop stop-color="#FB008A"/>
<stop offset="0.98" stop-color="#FBC91E"/>
</linearGradient>
<linearGradient id="paint5_linear_5_137" x1="3.158" y1="-4.58643" x2="159.196" y2="15.6457" gradientUnits="userSpaceOnUse">
<stop stop-color="#FB008A"/>
<stop offset="0.98" stop-color="#FBC91E"/>
</linearGradient>
<linearGradient id="paint6_linear_5_137" x1="3.51664" y1="-7.35163" x2="159.555" y2="12.8898" gradientUnits="userSpaceOnUse">
<stop stop-color="#FB008A"/>
<stop offset="0.98" stop-color="#FBC91E"/>
</linearGradient>
</defs>
</svg>
